# xmcd
#
# Track frame offsets:
#	150
#	21167
#	45848
#	59032
#	72545
#	89517
#	100451
#	130609
#	141149
#	158420
#	173693
#	186145
#	196400
#	214458
#	226526
#	236107
#
# Disc length: 3603 seconds
# Revision: 0
# Processed by: cddbd v1.5.2PL0 Copyright (c) Steve Scherf et al.
# Submitted via: dBpowerAMP V12.0
#
DISCID=dd0e1110
DTITLE=Various Artist - Slow Blues Moods
DYEAR=2003
DGENRE=Blues
TTITLE0=Mike Bloomfield - Cherry red
TTITLE1=Ike and Tina Turner - All I can do is cry
TTITLE2=Tony Joe White - You got me running
TTITLE3=Canned Heat - Louise
TTITLE4=Santana - As the years go by
TTITLE5=Eric Clapton - Snake drive
TTITLE6=Brownie McGhee and Sonny Terry - Everybody's blue
TTITLE7=Big Joe Williams - Sinking blues
TTITLE8=The Blues Instigators - How blue can you get
TTITLE9=Muddy Waters - Country blues
TTITLE10=Big Bill Bronzy - Bad acting woman
TTITLE11=James Harman - Swamp night
TTITLE12=Lightning Slim - Hoodoo blues
TTITLE13=T-Bone Walker - No worry blues
TTITLE14=Willie Johnson and Sammy Lewis - So long baby, goodbye
TTITLE15=B. B. King - Outside help
EXTD=
EXTT0=
EXTT1=
EXTT2=
EXTT3=
EXTT4=
EXTT5=
EXTT6=
EXTT7=
EXTT8=
EXTT9=
EXTT10=
EXTT11=
EXTT12=
EXTT13=
EXTT14=
EXTT15=
PLAYORDER=
